<svg width="88" height="88" viewBox="0 0 88 88" fill="none" xmlns="http://www.w3.org/2000/svg">
  <path opacity="0.08" d="M66.0312 10.5286C71.4024 15.5348 75.6494 20.5409 79.5216 26.1729C83.3939 31.7422 86.8914 37.9374 87.7658 44.6331C88.6401 51.3289 86.9538 58.5878 84.5805 66.7854C82.2697 75.0456 79.2718 84.3695 73.0262 87.0604C66.7807 89.7512 57.2874 85.934 48.4812 84.6824C39.7374 83.4309 31.6182 84.8076 23.2491 83.3683C14.8176 81.8665 6.13629 77.6112 2.4514 70.6026C-1.17102 63.594 0.203004 53.8319 0.515282 44.3202C0.890016 34.8085 0.140546 25.4845 4.44998 19.5397C8.75942 13.6575 18.0028 11.0918 26.0596 7.65005C34.1164 4.14574 40.9865 -0.297238 47.6068 0.0156473C54.2271 0.328533 60.7225 5.45985 66.0312 10.5286Z" fill="url(#paint0_linear_0_1)"/>
  <path d="M68.1 72.33H20.18C17.33 72.33 15 70.01 15 67.15V20.18C15 17.33 17.32 15 20.18 15H68.1C70.96 15 73.28 17.32 73.28 20.18V67.15C73.28 70.01 70.96 72.33 68.1 72.33ZM20.18 17.01C18.43 17.01 17 18.43 17 20.19V67.16C17 68.91 18.43 70.34 20.18 70.34H68.1C69.85 70.34 71.28 68.91 71.28 67.16V20.18C71.28 18.43 69.85 17 68.1 17H20.18V17.01Z" fill="#0CD66E"/>
  <path d="M28.02 38.02H22.39C21.07 38.02 20 36.95 20 35.63V34.24C20 32.92 21.07 31.85 22.39 31.85H28.02C29.34 31.85 30.41 32.92 30.41 34.24V35.63C30.41 36.95 29.34 38.02 28.02 38.02ZM22.39 33.85C22.18 33.85 22 34.02 22 34.24V35.63C22 35.84 22.17 36.02 22.39 36.02H28.02C28.23 36.02 28.41 35.85 28.41 35.63V34.24C28.41 34.03 28.24 33.85 28.02 33.85H22.39Z" fill="#0CD66E"/>
  <path d="M25.2 33.85C24.65 33.85 24.2 33.4 24.2 32.85V22C24.2 21.45 24.65 21 25.2 21C25.75 21 26.2 21.45 26.2 22V32.85C26.2 33.4 25.76 33.85 25.2 33.85Z" fill="#0CD66E"/>
  <path d="M25.2 66.04C24.65 66.04 24.2 65.59 24.2 65.04V37.02C24.2 36.47 24.65 36.02 25.2 36.02C25.75 36.02 26.2 36.47 26.2 37.02V65.04C26.2 65.6 25.76 66.04 25.2 66.04Z" fill="#0CD66E"/>
  <path d="M40.48 47.15H34.85C33.53 47.15 32.46 46.08 32.46 44.76V43.37C32.46 42.05 33.53 40.98 34.85 40.98H40.48C41.8 40.98 42.87 42.05 42.87 43.37V44.76C42.87 46.08 41.79 47.15 40.48 47.15ZM34.85 42.98C34.64 42.98 34.46 43.15 34.46 43.37V44.76C34.46 44.97 34.63 45.15 34.85 45.15H40.48C40.69 45.15 40.87 44.98 40.87 44.76V43.37C40.87 43.16 40.7 42.98 40.48 42.98H34.85Z" fill="#0CD66E"/>
  <path d="M37.6599 42.98C37.1099 42.98 36.6599 42.53 36.6599 41.98V22C36.6599 21.45 37.1099 21 37.6599 21C38.2099 21 38.6599 21.45 38.6599 22V41.98C38.6599 42.54 38.2099 42.98 37.6599 42.98Z" fill="#0CD66E"/>
  <path d="M37.6599 66.04C37.1099 66.04 36.6599 65.59 36.6599 65.04V46.15C36.6599 45.6 37.1099 45.15 37.6599 45.15C38.2099 45.15 38.6599 45.6 38.6599 46.15V65.04C38.6599 65.6 38.2099 66.04 37.6599 66.04Z" fill="#0CD66E"/>
  <path d="M52.25 40.1H46.62C45.3 40.1 44.23 39.03 44.23 37.71V36.32C44.23 35 45.3 33.93 46.62 33.93H52.25C53.57 33.93 54.64 35 54.64 36.32V37.71C54.64 39.03 53.57 40.1 52.25 40.1ZM46.62 35.94C46.41 35.94 46.23 36.11 46.23 36.33V37.72C46.23 37.93 46.4 38.11 46.62 38.11H52.25C52.46 38.11 52.64 37.94 52.64 37.72V36.33C52.64 36.12 52.47 35.94 52.25 35.94H46.62Z" fill="#0CD66E"/>
  <path d="M49.4299 35.94C48.8799 35.94 48.4299 35.49 48.4299 34.94V22C48.4299 21.45 48.8799 21 49.4299 21C49.9799 21 50.4299 21.45 50.4299 22V34.94C50.4299 35.49 49.9899 35.94 49.4299 35.94Z" fill="#0CD66E"/>
  <path d="M49.4299 66.04C48.8799 66.04 48.4299 65.59 48.4299 65.04V39.1C48.4299 38.55 48.8799 38.1 49.4299 38.1C49.9799 38.1 50.4299 38.55 50.4299 39.1V65.04C50.4299 65.6 49.9899 66.04 49.4299 66.04Z" fill="#0CD66E"/>
  <path d="M64.75 49.61H59.12C57.8 49.61 56.73 48.54 56.73 47.22V45.83C56.73 44.51 57.8 43.44 59.12 43.44H64.75C66.07 43.44 67.14 44.51 67.14 45.83V47.22C67.14 48.54 66.07 49.61 64.75 49.61ZM59.12 45.44C58.91 45.44 58.73 45.61 58.73 45.83V47.22C58.73 47.43 58.9 47.61 59.12 47.61H64.75C64.96 47.61 65.14 47.44 65.14 47.22V45.83C65.14 45.62 64.97 45.44 64.75 45.44H59.12Z" fill="#0CD66E"/>
  <path d="M61.9399 45.44C61.3899 45.44 60.9399 44.99 60.9399 44.44V22C60.9399 21.45 61.3899 21 61.9399 21C62.4899 21 62.9399 21.45 62.9399 22V44.45C62.9399 45 62.4899 45.44 61.9399 45.44Z" fill="#0CD66E"/>
  <path d="M61.9399 66.04C61.3899 66.04 60.9399 65.59 60.9399 65.04V48.61C60.9399 48.06 61.3899 47.61 61.9399 47.61C62.4899 47.61 62.9399 48.06 62.9399 48.61V65.04C62.9399 65.6 62.4899 66.04 61.9399 66.04Z" fill="#0CD66E"/>
  <defs>
    <linearGradient id="paint0_linear_0_1" x1="1.74129e-07" y1="1.74129e-07" x2="88" y2="88" gradientUnits="userSpaceOnUse">
      <stop stop-color="#69F290"/>
      <stop offset="1" stop-color="#0CD66E"/>
    </linearGradient>
  </defs>
</svg>
