<svg width="88" height="88" viewBox="0 0 88 88" fill="none" xmlns="http://www.w3.org/2000/svg">
  <path d="M43.4988 70.32C43.2088 70.32 42.9288 70.19 42.7388 69.97L30.2888 55.33C30.0388 55.03 29.9788 54.62 30.1388 54.26C30.2988 53.91 30.6588 53.68 31.0488 53.68H36.0388V46.5C36.0388 45.95 36.4888 45.5 37.0388 45.5C37.5888 45.5 38.0388 45.95 38.0388 46.5V54.68C38.0388 55.23 37.5888 55.68 37.0388 55.68H33.2088L43.4988 67.77L53.7788 55.68H49.9488C49.3988 55.68 48.9488 55.23 48.9488 54.68V46.51C48.9488 45.96 49.3988 45.51 49.9488 45.51C50.4988 45.51 50.9488 45.96 50.9488 46.51V53.68H55.9388C56.3288 53.68 56.6788 53.91 56.8488 54.26C57.0088 54.61 56.9588 55.03 56.6988 55.33L44.2588 69.96C44.0688 70.19 43.7888 70.32 43.4988 70.32Z" fill="#FA541C"/>
  <path d="M37.0388 24.33C36.4888 24.33 36.0388 23.88 36.0388 23.33V19C36.0388 18.45 36.4888 18 37.0388 18C37.5888 18 38.0388 18.45 38.0388 19V23.33C38.0388 23.89 37.5888 24.33 37.0388 24.33Z" fill="#FA541C"/>
  <path d="M49.9487 24.33C49.3987 24.33 48.9487 23.88 48.9487 23.33V19C48.9487 18.45 49.3987 18 49.9487 18C50.4987 18 50.9487 18.45 50.9487 19V23.32C50.9487 23.88 50.4987 24.33 49.9487 24.33Z" fill="#FA541C"/>
  <path d="M29.4488 70.28C29.1588 70.28 28.8788 70.15 28.6888 69.93L16.2388 55.3C15.9888 55 15.9288 54.59 16.0888 54.23C16.2488 53.88 16.6088 53.65 16.9988 53.65H21.9888V34.58C21.9888 34.03 22.4388 33.58 22.9888 33.58C23.5388 33.58 23.9888 34.03 23.9888 34.58V54.65C23.9888 54.91 23.8788 55.17 23.6988 55.36C23.5188 55.55 23.2588 55.65 22.9888 55.65H19.1688L29.4488 67.73L35.6988 60.38C36.0588 59.96 36.6888 59.91 37.1088 60.27C37.5288 60.63 37.5788 61.26 37.2188 61.68L30.2088 69.93C30.0188 70.15 29.7388 70.28 29.4488 70.28Z" fill="#FA541C"/>
  <path d="M57.5489 70.28C57.2589 70.28 56.9789 70.15 56.7889 69.93L49.7789 61.68C49.4189 61.26 49.4689 60.63 49.8889 60.27C50.3089 59.91 50.9389 59.96 51.2989 60.38L57.5489 67.73L67.8289 55.66H64.0089C63.4589 55.66 63.0089 55.21 63.0089 54.66V34.59C63.0089 34.04 63.4589 33.59 64.0089 33.59C64.5589 33.59 65.0089 34.04 65.0089 34.59V53.66H69.9989C70.3889 53.66 70.7389 53.89 70.9089 54.24C71.0689 54.59 71.0189 55.01 70.7589 55.31L58.3089 69.93C58.1189 70.15 57.8389 70.28 57.5489 70.28Z" fill="#FA541C"/>
  <path d="M43.4988 49.19C35.6288 49.19 29.2288 42.79 29.2288 34.92C29.2288 27.05 35.6288 20.65 43.4988 20.65C51.3688 20.65 57.7688 27.05 57.7688 34.92C57.7688 42.79 51.3688 49.19 43.4988 49.19ZM43.4988 22.65C36.7388 22.65 31.2288 28.15 31.2288 34.92C31.2288 41.69 36.7388 47.19 43.4988 47.19C50.2588 47.19 55.7688 41.69 55.7688 34.92C55.7688 28.15 50.2588 22.65 43.4988 22.65Z" fill="#FA541C"/>
  <path d="M43.4489 40.22C43.3189 40.22 43.1789 40.22 43.0489 40.21C40.8589 40.07 39.3489 38.85 39.2089 37.09C39.1689 36.54 39.5689 36.06 40.1289 36.01C40.6989 35.97 41.1589 36.38 41.2089 36.93C41.2989 38.01 42.7489 38.19 43.1889 38.22C44.5989 38.31 45.6889 37.74 45.7789 37.32C45.9489 36.52 46.0589 35.99 42.0289 34.91C39.6889 34.28 39.0289 32.67 39.2089 31.37C39.4489 29.57 41.1889 28.1 43.0789 28.1C46.3889 28.1 47.3589 30.22 47.3989 30.31C47.6189 30.82 47.3889 31.41 46.8889 31.63C46.3889 31.85 45.8089 31.63 45.5789 31.14C45.5389 31.07 44.9989 30.1 43.0789 30.1C42.0789 30.1 41.2889 30.91 41.1889 31.63C41.0889 32.41 41.8689 32.79 42.5489 32.97C46.5189 34.04 48.3089 35.02 47.7289 37.73C47.3689 39.4 45.3289 40.22 43.4489 40.22Z" fill="#FA541C"/>
  <path d="M43.4189 42.67C42.8689 42.67 42.4189 42.22 42.4189 41.67V27.49C42.4189 26.94 42.8689 26.49 43.4189 26.49C43.9689 26.49 44.4189 26.94 44.4189 27.49V41.67C44.4189 42.23 43.9789 42.67 43.4189 42.67Z" fill="#FA541C"/>
  <path d="M64.0088 32C63.4588 32 63.0088 31.55 63.0088 31V26.67C63.0088 26.12 63.4588 25.67 64.0088 25.67C64.5588 25.67 65.0088 26.12 65.0088 26.67V31C65.0088 31.55 64.5588 32 64.0088 32Z" fill="#FA541C"/>
  <path d="M64.0088 24.33C63.4588 24.33 63.0088 23.88 63.0088 23.33V21.17C63.0088 20.62 63.4588 20.17 64.0088 20.17C64.5588 20.17 65.0088 20.62 65.0088 21.17V23.32C65.0088 23.88 64.5588 24.33 64.0088 24.33Z" fill="#FA541C"/>
  <path d="M22.9888 32C22.4388 32 21.9888 31.55 21.9888 31V26.67C21.9888 26.12 22.4388 25.67 22.9888 25.67C23.5388 25.67 23.9888 26.12 23.9888 26.67V31C23.9888 31.55 23.5488 32 22.9888 32Z" fill="#FA541C"/>
  <path d="M22.9888 24.33C22.4388 24.33 21.9888 23.88 21.9888 23.33V21.17C21.9888 20.62 22.4388 20.17 22.9888 20.17C23.5388 20.17 23.9888 20.62 23.9888 21.17V23.32C23.9888 23.88 23.5488 24.33 22.9888 24.33Z" fill="#FA541C"/>
  <path opacity="0.08" d="M87.36 21.1216C91.1768 35.9068 77.35 58.1304 61.0746 72.4564C44.7272 86.6905 25.8593 93.2107 13.8328 83.109C1.80626 73.0992 -3.37882 46.4676 2.31036 28.4683C7.92753 10.469 24.419 1.10197 43.2869 0.0918051C62.2268 -0.91836 83.6153 6.4283 87.36 21.1216Z" fill="url(#paint0_linear_0_1)"/>
  <defs>
    <linearGradient id="paint0_linear_0_1" x1="-5.24247e-07" y1="-5.24247e-07" x2="88" y2="88" gradientUnits="userSpaceOnUse">
      <stop stop-color="#FDAB76"/>
      <stop offset="1" stop-color="#FA541C"/>
    </linearGradient>
  </defs>
</svg>
