<svg width="88" height="88" viewBox="0 0 88 88" fill="none" xmlns="http://www.w3.org/2000/svg">
  <path opacity="0.08" d="M70.3059 0.63165C75.0962 3.28898 75.3045 15.0572 75.7905 23.9403C76.3459 32.8234 77.179 38.8973 80.3031 46.9452C83.4272 54.9932 88.9118 65.0151 87.8704 72.9871C86.8985 80.9591 79.47 86.9571 71.4861 87.8682C63.5717 88.7793 55.1018 84.6794 46.8402 84.3757C38.5787 84.072 30.4559 87.5645 23.0969 86.3497C15.6684 85.059 9.00361 79.061 4.76868 71.3168C0.53376 63.6485 -1.20187 54.3098 0.880885 46.2619C2.96363 38.2899 8.86476 31.5327 13.5857 24.7754C18.2371 17.9423 21.7084 11.1091 27.0541 8.75551C32.3304 6.40186 39.5506 8.67958 47.8122 6.55371C56.0738 4.42785 65.5156 -2.02569 70.3059 0.63165Z" fill="url(#paint0_linear_0_1)"/>
  <path d="M68.6701 71.67H19.3301C18.7801 71.67 18.3301 71.22 18.3301 70.67V38.88C18.3301 38.33 18.7801 37.88 19.3301 37.88C19.8801 37.88 20.3301 38.33 20.3301 38.88V69.67H67.6601V38.88C67.6601 38.33 68.1101 37.88 68.6601 37.88C69.2101 37.88 69.6601 38.33 69.6601 38.88V70.67C69.6701 71.23 69.2201 71.67 68.6701 71.67Z" fill="#22B8CF"/>
  <path d="M70.3501 40.8C69.8701 40.8 69.4001 40.65 68.9901 40.35L44.1801 22.25C44.0701 22.17 43.9201 22.17 43.8001 22.25L19.0001 40.36C18.2901 40.87 17.3801 40.95 16.6001 40.55C15.8201 40.16 15.3401 39.37 15.3401 38.5V35.92C15.3401 35.18 15.7001 34.49 16.2901 34.06L41.5501 15.69C43.0201 14.62 44.9801 14.62 46.4501 15.69L71.7201 34.05C72.3101 34.48 72.6701 35.18 72.6701 35.91V38.49C72.6701 39.36 72.1901 40.15 71.4101 40.54C71.0701 40.72 70.7101 40.8 70.3501 40.8ZM43.9901 20.19C44.4701 20.19 44.9501 20.34 45.3601 20.64L70.1801 38.75C70.3001 38.84 70.4201 38.81 70.5001 38.78C70.5801 38.74 70.6701 38.66 70.6701 38.51V35.93C70.6701 35.83 70.6201 35.74 70.5501 35.68L45.2701 17.31C44.5101 16.76 43.4901 16.76 42.7201 17.31L17.4601 35.67C17.3801 35.73 17.3401 35.82 17.3401 35.92V38.5C17.3401 38.65 17.4301 38.73 17.5101 38.77C17.5901 38.81 17.7001 38.83 17.8301 38.74L42.6401 20.64C43.0401 20.34 43.5201 20.19 43.9901 20.19Z" fill="#22B8CF"/>
  <path d="M66.2501 32.32C65.7001 32.32 65.2501 31.87 65.2501 31.32V20.88H59.6201V25.77C59.6201 26.32 59.1701 26.77 58.6201 26.77C58.0701 26.77 57.6201 26.32 57.6201 25.77V19.88C57.6201 19.33 58.0701 18.88 58.6201 18.88H66.2501C66.8001 18.88 67.2501 19.33 67.2501 19.88V31.32C67.2501 31.87 66.8001 32.32 66.2501 32.32Z" fill="#22B8CF"/>
  <path d="M67.64 20.88H57.22C56.67 20.88 56.22 20.43 56.22 19.88C56.22 19.33 56.67 18.88 57.22 18.88H67.64C68.19 18.88 68.64 19.33 68.64 19.88C68.64 20.43 68.19 20.88 67.64 20.88Z" fill="#22B8CF"/>
  <path d="M52.19 64.33H36.45C33.7 64.33 31.46 62.09 31.46 59.34V48.02C31.46 45.27 33.7 43.03 36.45 43.03H52.19C54.94 43.03 57.18 45.27 57.18 48.02V59.34C57.18 62.09 54.94 64.33 52.19 64.33ZM36.45 45.03C34.8 45.03 33.46 46.37 33.46 48.02V59.34C33.46 60.99 34.8 62.33 36.45 62.33H52.19C53.84 62.33 55.18 60.99 55.18 59.34V48.02C55.18 46.37 53.84 45.03 52.19 45.03H36.45Z" fill="#22B8CF"/>
  <path d="M51.7899 45.03H36.8499C36.2999 45.03 35.8499 44.58 35.8499 44.03V40.51C35.8499 35.84 39.6499 32.04 44.3199 32.04C48.9899 32.04 52.7899 35.84 52.7899 40.51V44.03C52.7899 44.58 52.3399 45.03 51.7899 45.03ZM37.8499 43.03H50.7799V40.51C50.7799 36.94 47.8799 34.04 44.3099 34.04C40.7399 34.04 37.8399 36.94 37.8399 40.51V43.03H37.8499Z" fill="#22B8CF"/>
  <path d="M44.4701 54.68C42.6001 54.68 41.0801 53.16 41.0801 51.29C41.0801 49.42 42.6001 47.9 44.4701 47.9C46.3401 47.9 47.8601 49.42 47.8601 51.29C47.8601 53.16 46.3401 54.68 44.4701 54.68ZM44.4701 49.9C43.7001 49.9 43.0801 50.52 43.0801 51.29C43.0801 52.06 43.7001 52.68 44.4701 52.68C45.2401 52.68 45.8601 52.06 45.8601 51.29C45.8601 50.52 45.2301 49.9 44.4701 49.9Z" fill="#22B8CF"/>
  <path d="M44.47 58.29C43.92 58.29 43.47 57.84 43.47 57.29V53.68C43.47 53.13 43.92 52.68 44.47 52.68C45.02 52.68 45.47 53.13 45.47 53.68V57.29C45.47 57.84 45.02 58.29 44.47 58.29Z" fill="#22B8CF"/>
  <defs>
    <linearGradient id="paint0_linear_0_1" x1="9.57208e-07" y1="9.57208e-07" x2="88" y2="88" gradientUnits="userSpaceOnUse">
      <stop stop-color="#77F0ED"/>
      <stop offset="1" stop-color="#22B8CF"/>
    </linearGradient>
  </defs>
</svg>
