<svg width="88" height="88" viewBox="0 0 88 88" fill="none" xmlns="http://www.w3.org/2000/svg">
  <path opacity="0.08" d="M73.6563 1.36972C78.441 4.85107 78.6204 15.7153 79.2783 23.9385C79.8764 32.1016 80.953 37.6838 83.3454 44.6465C85.7377 51.6092 89.4459 59.9525 87.4124 65.6547C85.3789 71.4169 77.5439 74.4781 70.307 78.9798C63.1299 83.4216 56.5508 89.3038 50.869 87.7432C45.1273 86.2427 40.3426 77.2992 32.2085 73.3377C24.0745 69.4361 12.6509 70.4565 6.25135 66.3149C-0.148231 62.1133 -1.46404 52.6896 1.52642 45.0067C4.51688 37.3237 11.7538 31.3213 17.6151 26.1593C23.4166 20.9373 27.7228 16.5556 32.8664 13.2543C38.01 10.0131 43.9909 7.85224 51.7063 4.79105C59.4217 1.78989 68.8715 -2.11163 73.6563 1.36972Z" fill="url(#paint0_linear_0_1)"/>
  <path d="M57.4269 60.7H32.0769C31.5269 60.7 31.0769 60.25 31.0769 59.7V38.77C31.0769 38.22 31.5269 37.77 32.0769 37.77C32.6269 37.77 33.0769 38.22 33.0769 38.77V58.69H56.4269V38.77C56.4269 38.22 56.8769 37.77 57.4269 37.77C57.9769 37.77 58.4269 38.22 58.4269 38.77V59.69C58.4269 60.25 57.9769 60.7 57.4269 60.7Z" fill="#FFC81A"/>
  <path d="M59.8468 41.35C59.4568 41.35 59.0668 41.23 58.7368 41L45.0268 30.76C44.8568 30.65 44.6368 30.65 44.4668 30.77L30.7968 40.98C30.1768 41.42 29.3968 41.46 28.7568 41.13C28.1168 40.79 27.7168 40.13 27.7168 39.41V37.63C27.7168 37 28.0268 36.4 28.5468 36.04L43.2968 25.02C44.1768 24.4 45.3268 24.4 46.1868 25L60.9868 36.05C61.4768 36.4 61.7868 36.99 61.7868 37.62V39.4C61.7868 40.13 61.3868 40.79 60.7468 41.12C60.4668 41.28 60.1568 41.35 59.8468 41.35ZM44.7668 26.54C44.6668 26.54 44.5668 26.57 44.4768 26.63L29.7168 37.65V39.29L43.2968 29.14C44.1768 28.53 45.3268 28.53 46.1768 29.12C46.1868 29.13 46.1968 29.13 46.2068 29.14L59.7868 39.29V37.62L45.0168 26.62C44.9468 26.57 44.8568 26.54 44.7668 26.54Z" fill="#FFC81A"/>
  <path d="M47.3669 60.7001H41.8669C41.3169 60.7001 40.8669 60.2501 40.8669 59.7001V50.8C40.8669 50.25 41.3169 49.8 41.8669 49.8H47.3669C47.9169 49.8 48.3669 50.25 48.3669 50.8V59.7001C48.3669 60.2501 47.9269 60.7001 47.3669 60.7001ZM42.8669 58.7001H46.3669V51.8H42.8669V58.7001Z" fill="#FFC81A"/>
  <path d="M40.847 47.97H35.637C35.087 47.97 34.637 47.52 34.637 46.97V40.72C34.637 40.17 35.087 39.72 35.637 39.72H40.847C41.397 39.72 41.847 40.17 41.847 40.72V46.97C41.847 47.52 41.397 47.97 40.847 47.97ZM36.637 45.97H39.847V41.72H36.637V45.97Z" fill="#FFC81A"/>
  <path d="M53.877 47.97H48.667C48.117 47.97 47.667 47.52 47.667 46.97V40.72C47.667 40.17 48.117 39.72 48.667 39.72H53.877C54.427 39.72 54.877 40.17 54.877 40.72V46.97C54.877 47.52 54.427 47.97 53.877 47.97ZM49.667 45.97H52.877V41.72H49.667V45.97Z" fill="#FFC81A"/>
  <path d="M44.4568 68.66C43.9068 68.66 43.4568 68.21 43.4568 67.66C43.4568 67.11 43.9068 66.66 44.4568 66.66C57.0468 66.66 67.2868 56.42 67.2868 43.83C67.2868 35.93 62.9568 28.39 55.9868 24.14C55.5168 23.85 55.3668 23.24 55.6568 22.77C55.9468 22.3 56.5568 22.15 57.0268 22.44C64.5868 27.05 69.2868 35.24 69.2868 43.83C69.2868 57.52 58.1468 68.66 44.4568 68.66Z" fill="#FFC81A"/>
  <path d="M34.207 66.38C34.057 66.38 33.917 66.35 33.777 66.28C25.187 62.13 19.637 53.32 19.637 43.83C19.637 30.14 30.777 19 44.467 19C45.017 19 45.467 19.45 45.467 20C45.467 20.55 45.017 21 44.467 21C31.877 21 21.637 31.24 21.637 43.83C21.637 52.56 26.747 60.66 34.647 64.48C35.147 64.72 35.357 65.32 35.117 65.81C34.937 66.17 34.577 66.38 34.207 66.38Z" fill="#FFC81A"/>
  <path d="M32.337 69.5401C31.987 69.5401 31.657 69.35 31.477 69.05C31.287 68.74 31.287 68.35 31.477 68.03L35.017 62.0401C35.197 61.7401 35.517 61.55 35.877 61.55C36.227 61.55 36.547 61.73 36.737 62.03L40.217 67.8C40.397 68.1 40.407 68.48 40.237 68.8C40.067 69.11 39.747 69.31 39.387 69.32L32.367 69.53C32.357 69.54 32.347 69.5401 32.337 69.5401ZM35.887 64.5L34.127 67.48L37.617 67.37L35.887 64.5Z" fill="#FFC81A"/>
  <path d="M54.607 27.4H54.597C54.247 27.4 53.917 27.21 53.747 26.9L50.407 21.18C50.227 20.87 50.227 20.49 50.407 20.18C50.587 19.87 50.917 19.68 51.277 19.68H58.127C58.487 19.68 58.827 19.88 58.997 20.19C59.177 20.51 59.167 20.89 58.977 21.2L55.467 26.92C55.277 27.22 54.947 27.4 54.607 27.4ZM53.007 21.67L54.627 24.45L56.327 21.67H53.007Z" fill="#FFC81A"/>
  <path d="M18.027 50.23C17.607 50.23 17.217 49.96 17.077 49.55C13.917 40.04 18.697 32.13 18.897 31.79C19.187 31.32 19.797 31.17 20.277 31.46C20.747 31.75 20.897 32.36 20.607 32.84C20.567 32.91 16.127 40.32 18.987 48.92C19.157 49.44 18.877 50.01 18.357 50.18C18.237 50.22 18.137 50.23 18.027 50.23Z" fill="#FFC81A"/>
  <path d="M69.1968 56.25C69.0368 56.25 68.8768 56.21 68.7268 56.13C68.2368 55.87 68.0568 55.26 68.3168 54.78C72.5268 46.96 69.7268 37.37 69.7068 37.28C69.5468 36.75 69.8468 36.19 70.3768 36.03C70.9068 35.87 71.4668 36.17 71.6268 36.7C71.7568 37.12 74.6768 47.18 70.0868 55.72C69.8968 56.06 69.5568 56.25 69.1968 56.25Z" fill="#FFC81A"/>
  <defs>
    <linearGradient id="paint0_linear_0_1" x1="3.83413e-07" y1="3.83413e-07" x2="88" y2="88" gradientUnits="userSpaceOnUse">
      <stop stop-color="#FFE475"/>
      <stop offset="1" stop-color="#FFC81A"/>
    </linearGradient>
  </defs>
</svg>
