<svg id="fi_4288455" height="512" viewBox="0 0 64 64" width="512" xmlns="http://www.w3.org/2000/svg"><g><g><g><path d="m59.345 14.195h-54.69c-1.544 0-2.8-1.256-2.8-2.8v-6.26c0-1.544 1.256-2.8 2.8-2.8h54.689c1.544 0 2.8 1.256 2.8 2.8v6.259c.001 1.544-1.255 2.801-2.799 2.801zm-54.69-9.845c-.434 0-.786.353-.786.786v6.259c0 .433.353.786.786.786h54.689c.434 0 .786-.353.786-.786v-6.26c0-.433-.353-.786-.786-.786h-54.689z"></path></g></g><g><g><path d="m57.545 61.665h-51.092c-.557 0-1.007-.451-1.007-1.007v-47.465c0-.556.45-1.007 1.007-1.007s1.007.451 1.007 1.007v46.457h49.078v-46.457c0-.556.45-1.007 1.007-1.007s1.007.451 1.007 1.007v47.465c0 .556-.45 1.007-1.007 1.007z"></path></g></g><g><g><path d="m52.737 56.808h-18.401c-.557 0-1.007-.451-1.007-1.007s.45-1.007 1.007-1.007h17.394v-40.599h-39.462v40.598h17.395c.557 0 1.007.451 1.007 1.007s-.45 1.007-1.007 1.007h-18.402c-.557 0-1.007-.451-1.007-1.007v-42.612c0-.556.45-1.007 1.007-1.007h41.477c.557 0 1.007.451 1.007 1.007v42.612c-.001.556-.451 1.008-1.008 1.008z"></path></g></g><g><g><g><path d="m34.336 56.809c-.557 0-1.007-.451-1.007-1.007v-8.723c0-.556.45-1.007 1.007-1.007s1.007.451 1.007 1.007v8.723c0 .555-.45 1.007-1.007 1.007z"></path></g></g><g><g><path d="m29.661 56.809c-.557 0-1.007-.451-1.007-1.007l.001-8.723c0-.556.45-1.007 1.007-1.007.557 0 1.007.451 1.007 1.007l-.001 8.723c0 .555-.45 1.007-1.007 1.007z"></path></g></g></g><g><g><g><path d="m52.737 18.85h-41.476c-.557 0-1.007-.451-1.007-1.007s.45-1.007 1.007-1.007h41.477c.557 0 1.007.451 1.007 1.007s-.451 1.007-1.008 1.007z"></path></g></g><g><g><path d="m52.737 23.085h-41.476c-.557 0-1.007-.451-1.007-1.007s.45-1.007 1.007-1.007h41.477c.557 0 1.007.451 1.007 1.007s-.451 1.007-1.008 1.007z"></path></g></g><g><g><path d="m52.737 27.321h-41.476c-.557 0-1.007-.451-1.007-1.007s.45-1.007 1.007-1.007h41.477c.557 0 1.007.451 1.007 1.007s-.451 1.007-1.008 1.007z"></path></g></g><g><g><path d="m52.737 31.557h-41.476c-.557 0-1.007-.451-1.007-1.007s.45-1.007 1.007-1.007h41.477c.557 0 1.007.451 1.007 1.007s-.451 1.007-1.008 1.007z"></path></g></g><g><g><path d="m52.737 35.792h-41.476c-.557 0-1.007-.451-1.007-1.007s.45-1.007 1.007-1.007h41.477c.557 0 1.007.451 1.007 1.007s-.451 1.007-1.008 1.007z"></path></g></g><g><g><path d="m52.737 40.028h-41.476c-.557 0-1.007-.451-1.007-1.007s.45-1.007 1.007-1.007h41.477c.557 0 1.007.451 1.007 1.007s-.451 1.007-1.008 1.007z"></path></g></g><g><g><path d="m52.737 44.264h-41.476c-.557 0-1.007-.451-1.007-1.007s.45-1.007 1.007-1.007h41.477c.557 0 1.007.451 1.007 1.007s-.451 1.007-1.008 1.007z"></path></g></g></g></g></svg>
