<svg id="fi_11541602" enable-background="new 0 0 64 64" viewBox="0 0 64 64" xmlns="http://www.w3.org/2000/svg"><g><g><path d="m47.39 61.45c-.46 0-.87-.32-.98-.79-2.06-9.39.48-15.61 2.93-21.63 2.15-5.27 4.18-10.25 3.05-17.19-1.89-11.64-8.43-17.29-20-17.29-10.5 0-19.04 8.54-19.04 19.04 0 1.99.31 3.96.91 5.85.09.23.1.49 0 .73l-2.96 7.54c-.09.22-.01.39.05.48s.18.23.42.23l3.07.1c.46.02.85.34.94.79l1.83 8.39c.39 1.77 2.04 2.95 3.84 2.75l10.71-1.24c.33-.14 2.44-1.17 3.74-5.51.16-.53.72-.83 1.25-.67s.83.72.67 1.25c-1.77 5.86-5.03 6.83-5.17 6.87-.05.01-.1.02-.15.03l-10.82 1.25c-2.83.34-5.42-1.52-6.02-4.31l-1.66-7.62-2.29-.08c-.82-.03-1.57-.45-2.02-1.13s-.54-1.54-.24-2.3l2.83-7.21c-.61-2-.92-4.08-.92-6.18 0-11.6 9.44-21.04 21.04-21.04 12.54 0 19.93 6.38 21.98 18.97 1.22 7.49-1.02 12.97-3.18 18.26-2.34 5.73-4.76 11.66-2.83 20.44.12.54-.22 1.07-.76 1.19-.08.02-.15.03-.22.03z"></path></g><g><path d="m29.23 61.45c-.13 0-.27-.03-.4-.08-.51-.22-.74-.81-.52-1.32 1.94-4.45-1.39-8.48-1.53-8.65-.36-.42-.3-1.05.12-1.41s1.05-.31 1.41.11c.18.21 4.29 5.14 1.84 10.74-.17.38-.54.61-.92.61z"></path></g></g><g><path d="m32.94 42.86c-.55 0-1-.45-1-1v-26.07c0-.55.45-1 1-1s1 .45 1 1v26.06c0 .56-.45 1.01-1 1.01z"></path></g><g><path d="m32.94 33.97c-.07 0-.14-.01-.2-.02-5.88-1.22-9.88-3.64-11.88-7.19-2.44-4.36-.91-8.75-.85-8.94.14-.4.52-.66.94-.66 12.84 0 12.98 15.66 12.98 15.81 0 .3-.14.59-.37.78-.17.14-.39.22-.62.22zm-11.22-14.79c-.27 1.24-.59 3.98.9 6.62 1.56 2.77 4.67 4.75 9.25 5.9-.28-3.33-1.84-12.02-10.15-12.52z"></path></g><g><path d="m32.94 27.82c-.23 0-.45-.08-.63-.22-.23-.19-.37-.47-.37-.78 0-.15.14-15.33 12.6-15.33.42 0 .8.27.94.66.06.18 1.55 4.44-.82 8.67-1.94 3.45-5.81 5.8-11.51 6.98-.07.01-.14.02-.21.02zm10.84-14.31c-7.98.5-9.49 8.79-9.77 12.04 4.4-1.11 7.39-3.02 8.89-5.68 1.43-2.53 1.13-5.15.88-6.36z"></path></g><g><path d="m32.94 33.97c-.17 0-.34-.04-.49-.13-2.39-1.36-6.12-6.43-6.54-7.01-.32-.45-.23-1.07.22-1.4.45-.32 1.07-.23 1.4.22 1.06 1.46 4.2 5.47 5.91 6.45.48.27.65.88.37 1.36-.18.33-.52.51-.87.51z"></path></g><g><path d="m32.94 27.82c-.17 0-.34-.04-.5-.13-.48-.27-.65-.88-.37-1.36.07-.11 1.65-2.87 5.27-6.88.37-.41 1-.44 1.41-.07s.44 1 .07 1.41c-3.46 3.84-5 6.5-5.02 6.53-.18.32-.51.5-.86.5z"></path></g></svg>
