<svg id="fi_11585579" enable-background="new 0 0 64 64" viewBox="0 0 64 64" xmlns="http://www.w3.org/2000/svg"><g><g><path d="m57.04 51.77h-9.71c-.55 0-1-.45-1-1s.45-1 1-1h9.71c1.41 0 2.55-1.15 2.55-2.56v-37.74c0-1.41-1.15-2.56-2.55-2.56h-50.07c-1.42-.01-2.57 1.14-2.57 2.56v37.73c0 1.41 1.15 2.56 2.56 2.56h10.17c.55 0 1 .45 1 1s-.45 1-1 1h-10.16c-2.52 0-4.56-2.05-4.56-4.56v-37.73c0-2.52 2.05-4.56 4.56-4.56h50.08c2.51 0 4.55 2.05 4.55 4.56v37.73c-.01 2.52-2.05 4.57-4.56 4.57z"></path></g><g><path d="m60.6 16.07h-57.2c-.55 0-1-.45-1-1s.45-1 1-1h57.2c.55 0 1 .45 1 1s-.45 1-1 1z"></path></g><g><path d="m45.73 11.22h-2.08c-.55 0-1-.45-1-1s.45-1 1-1h2.08c.55 0 1 .45 1 1s-.45 1-1 1z"></path></g><g><path d="m51.61 11.22h-2.08c-.55 0-1-.45-1-1s.45-1 1-1h2.08c.55 0 1 .45 1 1s-.45 1-1 1z"></path></g><g><path d="m57.23 11.22h-2.08c-.55 0-1-.45-1-1s.45-1 1-1h2.08c.55 0 1 .45 1 1s-.45 1-1 1z"></path></g></g><g><path d="m36.39 59.1h-8.33c-.5 0-.93-.37-.99-.87l-.54-4.23c-.22-.08-.43-.17-.64-.26l-3.37 2.59c-.4.31-.96.27-1.32-.08l-5.88-5.88c-.35-.35-.39-.92-.09-1.32l2.59-3.37c-.1-.22-.19-.44-.27-.65l-4.21-.54c-.5-.07-.87-.49-.87-.99v-8.33c0-.5.37-.93.87-.99l4.21-.54c.08-.21.17-.42.26-.64l-2.59-3.37c-.31-.4-.27-.96.09-1.32l5.88-5.88c.35-.36.92-.39 1.32-.09l3.37 2.59c.21-.09.42-.18.64-.26l.55-4.22c.06-.5.49-.87.99-.87h8.33c.5 0 .93.37.99.87l.56 4.22c.22.08.43.17.64.26l3.37-2.59c.4-.3.96-.27 1.32.09l5.88 5.88c.36.36.39.92.09 1.32l-2.59 3.36c.1.22.19.43.27.64l4.21.54c.5.07.87.49.87.99v8.33c0 .5-.37.93-.87.99l-4.21.54c-.08.21-.17.43-.27.65l2.59 3.37c.31.4.27.96-.09 1.32l-5.88 5.88c-.35.36-.92.39-1.32.09l-3.37-2.59c-.22.1-.44.18-.65.27l-.55 4.21c-.06.5-.48.88-.99.88zm-7.44-2h6.57l.51-3.94c.05-.38.31-.7.67-.82.5-.17 1.03-.38 1.58-.65.34-.16.74-.12 1.04.11l3.15 2.42 4.64-4.64-2.42-3.15c-.23-.3-.27-.7-.11-1.04.26-.55.48-1.08.65-1.58.12-.36.44-.63.82-.68l3.95-.52v-6.57l-3.94-.51c-.38-.05-.7-.31-.82-.68-.17-.51-.38-1.01-.65-1.55-.17-.34-.13-.75.1-1.06l2.43-3.15-4.64-4.64-3.15 2.42c-.3.23-.7.27-1.04.11-.49-.24-1.01-.45-1.58-.65-.35-.12-.61-.44-.66-.81l-.52-3.95h-6.57l-.51 3.96c-.05.38-.31.7-.67.82-.54.18-1.05.39-1.57.63-.34.16-.74.12-1.04-.11l-3.17-2.42-4.64 4.64 2.42 3.15c.23.3.27.7.11 1.04-.27.57-.49 1.09-.65 1.57-.12.36-.44.63-.82.68l-3.94.51v6.57l3.94.51c.38.05.7.31.82.68.17.5.38 1.03.65 1.58.16.34.12.74-.11 1.04l-2.42 3.15 4.64 4.64 3.15-2.43c.31-.24.72-.27 1.06-.1.49.24.99.45 1.55.64.36.12.63.44.67.82z"></path></g><g><path d="m32.24 49.89c-5.82 0-10.56-4.74-10.56-10.56s4.73-10.56 10.56-10.56 10.56 4.74 10.56 10.56-4.74 10.56-10.56 10.56zm0-19.11c-4.72 0-8.56 3.84-8.56 8.56s3.84 8.56 8.56 8.56 8.56-3.84 8.56-8.56-3.85-8.56-8.56-8.56z"></path></g><g><path d="m34.44 49.63c-.55 0-1-.45-1-1v-3.59c0-.84.37-1.63 1.03-2.16l1.57-1.28c.2-.17.32-.42.32-.68v-2.81c0-.2-.07-.39-.19-.55l-.87-1.08v1.97c0 1.21-.99 2.2-2.2 2.2h-1.73c-1.21 0-2.2-.99-2.2-2.2v-1.97l-.87 1.08c-.12.16-.19.35-.19.55v2.81c0 .27.12.51.32.68l1.57 1.28c.65.53 1.03 1.32 1.03 2.16v3.59c0 .55-.45 1-1 1s-1-.45-1-1v-3.59c0-.24-.11-.46-.29-.61l-1.57-1.28c-.67-.55-1.06-1.36-1.06-2.23v-2.81c0-.65.23-1.3.64-1.8l2.11-2.62c.35-.43.93-.59 1.45-.41s.87.68.87 1.23v3.94c0 .11.09.2.2.2h1.73c.11 0 .2-.09.2-.2v-3.95c0-.55.35-1.05.87-1.23s1.1-.02 1.45.41l2.11 2.62c.41.51.64 1.15.64 1.8v2.81c0 .87-.39 1.68-1.06 2.23l-1.57 1.28c-.18.15-.29.37-.29.61v3.59c-.02.56-.47 1.01-1.02 1.01z"></path></g></svg>
