<svg id="fi_11418847" enable-background="new 0 0 64 64" viewBox="0 0 64 64" xmlns="http://www.w3.org/2000/svg"><g><path d="m39.83 24.24h-16.21c-2.96 0-5.38-2.41-5.38-5.38 0-2.76 2.09-5.04 4.78-5.34 1.03-3.52 4.29-6 8.02-6 4.47 0 8.13 3.53 8.35 7.95.15-.01.29-.02.44-.02 2.42 0 4.39 1.97 4.39 4.39s-1.96 4.4-4.39 4.4zm-16.21-8.76c-1.86 0-3.38 1.51-3.38 3.38 0 1.86 1.52 3.38 3.38 3.38h16.21c1.32 0 2.39-1.07 2.39-2.39s-1.07-2.39-2.39-2.39c-.37 0-.72.08-1.04.24-.33.17-.73.14-1.03-.08-.3-.21-.46-.58-.41-.94.03-.26.05-.52.05-.79 0-3.51-2.85-6.36-6.36-6.36-3.05 0-5.67 2.17-6.24 5.16-.1.5-.56.84-1.06.81z"></path></g><g><path d="m58.61 49.65h-53.22c-.55 0-1-.45-1-1v-34c0-2.32 1.89-4.21 4.21-4.21h16.58c.55 0 1 .45 1 1s-.45 1-1 1h-16.58c-1.22 0-2.21.99-2.21 2.21v33h51.22v-33c0-1.22-.99-2.21-2.21-2.21h-18.5c-.55 0-1-.45-1-1s.45-1 1-1h18.5c2.32 0 4.21 1.89 4.21 4.21v34c0 .56-.45 1-1 1z"></path></g><g><path d="m56.73 56.48h-49.46c-3.43 0-6.22-2.79-6.22-6.22v-1.61c0-.55.45-1 1-1h59.89c.55 0 1 .45 1 1v1.61c0 3.43-2.78 6.22-6.21 6.22zm-53.67-6.83v.61c0 2.32 1.89 4.22 4.22 4.22h49.46c2.33 0 4.22-1.89 4.22-4.22v-.61z"></path></g><g><path d="m37.8 39.58h-4.44c-.55 0-1-.45-1-1v-11.91c0-.55.45-1 1-1s1 .45 1 1v10.91h3.44c.55 0 1 .45 1 1s-.45 1-1 1z"></path></g><g><path d="m50.47 44.2h-6.98c-1.6 0-2.91-1.3-2.91-2.91v-5.67c0-1.6 1.3-2.91 2.91-2.91h6.98c1.6 0 2.91 1.3 2.91 2.91v5.67c-.01 1.61-1.31 2.91-2.91 2.91zm-6.99-9.48c-.5 0-.91.41-.91.91v5.67c0 .5.41.91.91.91h6.98c.5 0 .91-.41.91-.91v-5.67c0-.5-.41-.91-.91-.91z"></path></g><g><path d="m50.04 34.72c-.55 0-1-.45-1-1v-2.39c0-.72-.59-1.31-1.31-1.31h-1.51c-.72 0-1.31.59-1.31 1.31v2.39c0 .55-.45 1-1 1s-1-.45-1-1v-2.39c0-1.83 1.48-3.31 3.31-3.31h1.51c1.83 0 3.31 1.49 3.31 3.31v2.39c0 .55-.45 1-1 1z"></path></g><g><path d="m46.98 40.1c-.55 0-1-.45-1-1v-1.6c0-.55.45-1 1-1s1 .45 1 1v1.6c-.01.56-.45 1-1 1z"></path></g><g><path d="m28.86 39.58h-3.46c-.55 0-1-.45-1-1s.45-1 1-1h2.46v-10.91c0-.55.45-1 1-1s1 .45 1 1v11.91c0 .55-.45 1-1 1z"></path></g><g><path d="m21.95 44.2h-11.35c-.55 0-1-.45-1-1v-12.77c0-.55.45-1 1-1h11.35c.55 0 1 .45 1 1v12.77c0 .56-.45 1-1 1zm-10.35-2h9.35v-10.77h-9.35z"></path></g><g><path d="m21.95 35.68h-11.35c-.55 0-1-.45-1-1s.45-1 1-1h11.35c.55 0 1 .45 1 1s-.45 1-1 1z"></path></g><g><path d="m21.95 39.91h-11.35c-.55 0-1-.45-1-1s.45-1 1-1h11.35c.55 0 1 .45 1 1s-.45 1-1 1z"></path></g></svg>
