<svg id="fi_11565864" enable-background="new 0 0 64 64" viewBox="0 0 64 64" xmlns="http://www.w3.org/2000/svg"><g><path d="m17.69 60.13c-.4 0-.76-.24-.92-.61l-4.59-10.74c-.3-.71-1-1.17-1.77-1.17-4.45 0-8.07-3.62-8.07-8.07v-21.1c0-4.45 3.62-8.07 8.07-8.07h12.92c.55 0 1 .45 1 1s-.45 1-1 1h-12.92c-3.35 0-6.07 2.72-6.07 6.07v21.11c0 3.35 2.73 6.07 6.07 6.07 1.57 0 2.99.94 3.61 2.38l3.67 8.6 3.73-8.62c.62-1.44 2.04-2.37 3.6-2.37h24.13c3.35 0 6.07-2.73 6.07-6.07v-21.1c0-3.35-2.73-6.08-6.08-6.08h-12.91c-.55 0-1-.45-1-1s.45-1 1-1h12.91c4.46 0 8.08 3.63 8.08 8.08v21.1c0 4.45-3.62 8.07-8.07 8.07h-24.13c-.77 0-1.46.46-1.77 1.16l-4.65 10.75c-.15.38-.51.61-.91.61z"></path></g><g><g><path d="m39.41 33.1h-19.26c-.86 0-1.66-.47-2.08-1.23-.43-.77-.4-1.67.06-2.42l2.03-3.28v-9.11c0-2.56 1-4.98 2.81-6.8 1.82-1.82 4.23-2.82 6.81-2.82s4.99 1 6.8 2.81c1.82 1.82 2.82 4.24 2.82 6.8v9.11l2.03 3.28c.46.75.48 1.65.06 2.42-.43.78-1.2 1.24-2.08 1.24zm-9.63-23.64c-2.04 0-3.95.79-5.39 2.23s-2.23 3.36-2.23 5.39v9.39c0 .19-.05.37-.15.53l-2.19 3.52c-.1.17-.05.31-.01.39s.14.2.33.2h19.26c.2 0 .29-.12.33-.2.04-.07.09-.22-.01-.39l-2.18-3.52c-.1-.16-.15-.34-.15-.53v-9.39c0-2.03-.79-3.95-2.24-5.39-1.42-1.44-3.33-2.23-5.37-2.23z"></path></g><g><path d="m30.42 37.87h-1.28c-3.18 0-5.77-2.59-5.77-5.77 0-.55.45-1 1-1h10.81c.55 0 1 .45 1 1 0 3.18-2.58 5.77-5.76 5.77zm-4.91-4.77c.44 1.59 1.9 2.77 3.63 2.77h1.28c1.73 0 3.19-1.17 3.63-2.77z"></path></g><g><path d="m32.64 9.95c-.55 0-1-.45-1-1v-1.22c0-.5-.19-.96-.55-1.32-.34-.34-.82-.54-1.32-.54-1.03 0-1.87.83-1.87 1.86v1.22c0 .55-.45 1-1 1s-1-.45-1-1v-1.22c0-2.13 1.73-3.86 3.87-3.86 1.02 0 2.01.41 2.73 1.13.73.73 1.14 1.7 1.14 2.73v1.22c0 .55-.44 1-1 1z"></path></g></g><g><path d="m49.33 51.97h-13.1c-.55 0-1-.45-1-1s.45-1 1-1h13.1c5.7 0 10.33-4.63 10.33-10.33v-9.84c0-.55.45-1 1-1s1 .45 1 1v9.84c0 6.8-5.53 12.33-12.33 12.33z"></path></g></svg>
