<svg id="fi_11377752" enable-background="new 0 0 64 64" viewBox="0 0 64 64" xmlns="http://www.w3.org/2000/svg">
  <g>
    <g>
      <path
        d="m16.12 60.72c-5.49 0-9.9-.02-10.33-.02-.55 0-1-.45-1-1s.45-1 1-1c.26 0 26.36.09 32.36-.18 5.64-.26 9.89-4.44 9.94-4.48l11.84-11.25c.42-.45.35-2.07-.31-2.76-.14-.15-.58-.6-1.78.44l-7.64 5.73c-2.74 2.05-6.13 3.18-9.55 3.18h-.01l-8.89-.01c-.55 0-1-.45-1-1s.45-1 1-1l8.89.01h.01c2.99 0 5.95-.99 8.35-2.78l7.59-5.68c2.39-2.06 4.03-.73 4.47-.27 1.37 1.42 1.52 4.23.29 5.55l-11.87 11.27c-.18.18-4.83 4.75-11.24 5.05-3.6.16-14.04.2-22.12.2z"></path>
    </g>
    <g>
      <path
        d="m39.74 49.37c-.55 0-1-.45-1-1 0-.49.36-.9.83-.98.07-.26.06-.93-.36-1.7-.35-.65-1.22-1.75-3.03-1.76l-6.41-.01c-2.84-.16-4.13.8-5.64 1.92-1.61 1.19-3.44 2.57-7.02 2.5l-11.32-.1c-.55 0-1-.46-.99-1.01 0-.55.45-.99 1-.99h.01l11.33.1c2.93.07 4.33-1.01 5.81-2.11 1.59-1.18 3.39-2.51 6.88-2.31h6.36c3.71.02 5.42 3.09 5.42 5.16-.01 1.58-.94 2.29-1.87 2.29z"></path>
    </g>
  </g>
  <g>
    <g>
      <path
        d="m37.48 38.41h-14.76c-2.76 0-5.01-2.25-5.01-5.01v-14.76c0-2.76 2.25-5.01 5.01-5.01h14.76c2.76 0 5.01 2.25 5.01 5.01v14.76c0 2.77-2.25 5.01-5.01 5.01zm-14.76-22.78c-1.66 0-3.01 1.35-3.01 3.01v14.76c0 1.66 1.35 3.01 3.01 3.01h14.76c1.66 0 3.01-1.35 3.01-3.01v-14.76c0-1.66-1.35-3.01-3.01-3.01z"></path>
    </g>
    <g>
      <path
        d="m34.97 31.89h-9.74c-.55 0-1-.45-1-1v-9.74c0-.55.45-1 1-1h9.74c.55 0 1 .45 1 1v9.74c0 .56-.45 1-1 1zm-8.74-2h7.74v-7.74h-7.74z"></path>
    </g>
    <g>
      <path
        d="m47.7 21.52h-6.21c-.55 0-1-.45-1-1s.45-1 1-1h5.77l2.4-2.66c.37-.41 1-.44 1.41-.07s.44 1 .07 1.41l-2.7 2.98c-.19.22-.46.34-.74.34z"></path>
    </g>
    <g>
      <path
        d="m50.92 29.46c-1.89 0-3.44-1.54-3.44-3.44s1.54-3.44 3.44-3.44c1.89 0 3.43 1.54 3.43 3.44s-1.54 3.44-3.43 3.44zm0-4.87c-.79 0-1.44.64-1.44 1.44s.64 1.44 1.44 1.44c.79 0 1.43-.64 1.43-1.44s-.64-1.44-1.43-1.44z"></path>
    </g>
    <g>
      <path
        d="m51.97 19.12c-1.89 0-3.43-1.54-3.43-3.43s1.54-3.44 3.43-3.44 3.44 1.54 3.44 3.44c0 1.89-1.55 3.43-3.44 3.43zm0-4.87c-.79 0-1.43.64-1.43 1.44 0 .79.64 1.43 1.43 1.43s1.44-.64 1.44-1.43c0-.8-.65-1.44-1.44-1.44z"></path>
    </g>
    <g>
      <path d="m48.48 27.02h-7c-.55 0-1-.45-1-1s.45-1 1-1h7c.55 0 1 .45 1 1s-.44 1-1 1z"></path>
    </g>
    <g>
      <path
        d="m50.4 35.51c-.27 0-.54-.11-.74-.33l-2.4-2.66h-5.77c-.55 0-1-.45-1-1s.45-1 1-1h6.21c.28 0 .55.12.74.33l2.7 2.98c.37.41.34 1.04-.07 1.41-.19.18-.43.27-.67.27z"></path>
    </g>
    <g>
      <path
        d="m51.97 39.8c-1.89 0-3.43-1.54-3.43-3.44 0-1.89 1.54-3.43 3.43-3.43s3.44 1.54 3.44 3.43c0 1.9-1.55 3.44-3.44 3.44zm0-4.87c-.79 0-1.43.64-1.43 1.43s.64 1.44 1.43 1.44 1.44-.64 1.44-1.44c0-.79-.65-1.43-1.44-1.43z"></path>
    </g>
    <g>
      <path
        d="m9.8 35.51c-.24 0-.48-.08-.67-.26-.41-.37-.44-1-.07-1.41l2.7-2.98c.19-.21.46-.33.74-.33h6.21c.55 0 1 .45 1 1s-.45 1-1 1h-5.77l-2.4 2.66c-.2.21-.47.32-.74.32z"></path>
    </g>
    <g>
      <path
        d="m9.28 29.46c-1.89 0-3.44-1.54-3.44-3.44s1.54-3.44 3.44-3.44c1.89 0 3.43 1.54 3.43 3.44s-1.54 3.44-3.43 3.44zm0-4.87c-.79 0-1.44.64-1.44 1.44s.64 1.44 1.44 1.44c.79 0 1.43-.64 1.43-1.44s-.64-1.44-1.43-1.44z"></path>
    </g>
    <g>
      <path
        d="m8.22 39.8c-1.89 0-3.43-1.54-3.43-3.44 0-1.89 1.54-3.43 3.43-3.43s3.44 1.54 3.44 3.43c0 1.9-1.54 3.44-3.44 3.44zm0-4.87c-.79 0-1.43.64-1.43 1.43s.64 1.44 1.43 1.44 1.44-.64 1.44-1.44c0-.79-.64-1.43-1.44-1.43z"></path>
    </g>
    <g>
      <path d="m18.71 27.02h-7c-.55 0-1-.45-1-1s.45-1 1-1h7c.55 0 1 .45 1 1s-.45 1-1 1z"></path>
    </g>
    <g>
      <path
        d="m18.71 21.52h-6.21c-.28 0-.55-.12-.74-.33l-2.7-2.98c-.37-.41-.34-1.04.07-1.41s1.04-.34 1.41.07l2.4 2.66h5.77c.55 0 1 .45 1 1s-.45.99-1 .99z"></path>
    </g>
    <g>
      <path
        d="m8.22 19.12c-1.89 0-3.43-1.54-3.43-3.43s1.54-3.44 3.43-3.44 3.44 1.54 3.44 3.44c0 1.89-1.54 3.43-3.44 3.43zm0-4.87c-.79 0-1.43.64-1.43 1.44 0 .79.64 1.43 1.43 1.43s1.44-.64 1.44-1.43c0-.8-.64-1.44-1.44-1.44z"></path>
    </g>
    <g>
      <path
        d="m24.17 15.63c-.55 0-1-.45-1-1v-3.2l-2.66-2.4c-.41-.37-.44-1-.07-1.41s1-.44 1.41-.07l2.98 2.7c.21.19.33.46.33.74v3.64c.01.56-.43 1-.99 1z"></path>
    </g>
    <g>
      <path
        d="m29.67 11.21c-1.89 0-3.43-1.54-3.43-3.44 0-1.89 1.54-3.43 3.43-3.43s3.44 1.54 3.44 3.43-1.54 3.44-3.44 3.44zm0-4.88c-.79 0-1.43.64-1.43 1.43s.64 1.44 1.43 1.44 1.44-.64 1.44-1.44c0-.78-.65-1.43-1.44-1.43z"></path>
    </g>
    <g>
      <path
        d="m19.33 10.15c-1.89 0-3.43-1.54-3.43-3.43s1.54-3.44 3.43-3.44 3.44 1.54 3.44 3.44c0 1.89-1.54 3.43-3.44 3.43zm0-4.87c-.79 0-1.43.64-1.43 1.44 0 .79.64 1.43 1.43 1.43s1.44-.64 1.44-1.43-.65-1.44-1.44-1.44z"></path>
    </g>
    <g>
      <path d="m29.67 15.63c-.55 0-1-.45-1-1v-4.43c0-.55.45-1 1-1s1 .45 1 1v4.43c0 .56-.45 1-1 1z"></path>
    </g>
    <g>
      <path
        d="m35.17 15.63c-.55 0-1-.45-1-1v-3.64c0-.28.12-.55.33-.74l2.98-2.7c.41-.37 1.04-.34 1.41.07s.34 1.04-.07 1.41l-2.66 2.4v3.2c.01.56-.44 1-.99 1z"></path>
    </g>
    <g>
      <path
        d="m40.01 10.15c-1.89 0-3.44-1.54-3.44-3.43s1.54-3.44 3.44-3.44c1.89 0 3.43 1.54 3.43 3.44.01 1.89-1.53 3.43-3.43 3.43zm0-4.87c-.79 0-1.44.64-1.44 1.44 0 .79.64 1.43 1.44 1.43.79 0 1.43-.64 1.43-1.43.01-.79-.64-1.44-1.43-1.44z"></path>
    </g>
  </g>
</svg>
