<svg id="fi_11571328" enable-background="new 0 0 64 64" viewBox="0 0 64 64" xmlns="http://www.w3.org/2000/svg"><g><g><path d="m54.59 62.27h-45.18c-1.73 0-3.13-1.4-3.13-3.13v-19.06c0-.55.45-1 1-1h10.84c.55 0 1 .45 1 1s-.45 1-1 1h-9.84v18.06c0 .62.51 1.13 1.13 1.13h45.18c.62 0 1.13-.51 1.13-1.13v-34.62c0-.55.45-1 1-1s1 .45 1 1v34.62c0 1.72-1.4 3.13-3.13 3.13z"></path></g><g><path d="m58.41 26.44c-.48 0-.95-.15-1.36-.45l-24.86-18.13c-.11-.08-.27-.08-.38 0l-24.86 18.14c-.7.51-1.63.59-2.4.19-.78-.4-1.26-1.18-1.26-2.06v-1.35c0-.74.35-1.43.95-1.87l25.3-18.38c1.47-1.07 3.44-1.07 4.91 0l25.31 18.39c.6.43.95 1.13.95 1.87v1.35c0 .87-.48 1.66-1.26 2.06-.33.16-.69.24-1.04.24zm-26.42-22.71c-.45 0-.89.14-1.28.42l-25.3 18.39c-.08.06-.13.15-.13.25v1.35c0 .16.1.24.17.27.08.04.19.07.32-.03l24.86-18.14c.82-.6 1.92-.6 2.74 0l24.86 18.14c.13.1.26.06.32.03s.17-.11.17-.27v-1.35c0-.1-.05-.19-.13-.25l-25.32-18.39c-.38-.28-.83-.42-1.28-.42z"></path></g></g><g><path d="m45.22 33.45h-15.73c-.4 0-.76-.24-.92-.61l-3.89-9.09h-2.08c-.55 0-1-.45-1-1s.45-1 1-1h2.71.04 19.86c2.79 0 5.06 2.27 5.06 5.05v1.58c0 2.8-2.27 5.07-5.05 5.07zm-15.07-2h15.07c1.68 0 3.06-1.37 3.06-3.05v-1.58c0-1.68-1.37-3.05-3.06-3.05h-18.37z"></path></g><g><path d="m43.53 37.67h-8.62c-.55 0-1-.45-1-1v-4.22c0-.55.45-1 1-1s1 .45 1 1v3.22h6.62v-3.22c0-.55.45-1 1-1s1 .45 1 1v4.22c0 .55-.44 1-1 1z"></path></g><g><path d="m46.89 44.47h-7.29c-.46 0-.86-.31-.97-.75l-1.73-6.8c-.14-.54.19-1.08.72-1.22.54-.14 1.08.19 1.22.72l1.54 6.04h6.51c.55 0 1 .45 1 1s-.45 1.01-1 1.01z"></path></g><g><path d="m56.72 41.1h-14.23c-.47 0-.88-.33-.98-.79l-.72-3.43c-.11-.54.23-1.07.77-1.18s1.07.23 1.18.77l.55 2.63h13.42c.55 0 1 .45 1 1s-.44 1-.99 1z"></path></g><g><path d="m21.92 44.91c-2.66 0-4.82-2.16-4.82-4.82s2.16-4.82 4.82-4.82 4.82 2.16 4.82 4.82-2.16 4.82-4.82 4.82zm0-7.63c-1.55 0-2.82 1.26-2.82 2.82s1.26 2.82 2.82 2.82 2.82-1.26 2.82-2.82-1.27-2.82-2.82-2.82z"></path></g><g><path d="m16.37 56.4c-2.66 0-4.82-2.16-4.82-4.82s2.16-4.82 4.82-4.82c2.65 0 4.81 2.16 4.81 4.82s-2.16 4.82-4.81 4.82zm0-7.63c-1.55 0-2.82 1.26-2.82 2.82s1.26 2.82 2.82 2.82 2.81-1.26 2.81-2.82-1.26-2.82-2.81-2.82z"></path></g><g><path d="m20.18 33.32c-1.88 0-3.41-1.53-3.41-3.41s1.53-3.42 3.41-3.42 3.41 1.53 3.41 3.42-1.52 3.41-3.41 3.41zm0-4.83c-.78 0-1.41.63-1.41 1.42 0 .78.63 1.41 1.41 1.41s1.41-.63 1.41-1.41c.01-.79-.63-1.42-1.41-1.42z"></path></g><g><path d="m15.43 36.64h-8.15c-.55 0-1-.45-1-1v-5.74c0-.55.45-1 1-1h10.49c.55 0 1 .45 1 1s-.45 1-1 1h-9.49v3.74h7.15c.55 0 1 .45 1 1s-.45 1-1 1z"></path></g><g><path d="m32 62.27c-.46 0-.88-.32-.98-.79l-1.86-8.88h-8.97c-.55 0-1-.45-1-1s.45-1 1-1h9.79c.47 0 .88.33.98.79l2.03 9.68c.11.54-.23 1.07-.77 1.18-.08.01-.15.02-.22.02z"></path></g></svg>
