<svg id="fi_11279298" enable-background="new 0 0 64 64" viewBox="0 0 64 64" xmlns="http://www.w3.org/2000/svg"><g><path d="m39.97 10.17c-1.76 0-3.19-1.43-3.19-3.19s1.43-3.19 3.19-3.19 3.19 1.43 3.19 3.19-1.43 3.19-3.19 3.19zm0-4.37c-.65 0-1.19.53-1.19 1.19 0 .65.53 1.19 1.19 1.19.65 0 1.19-.53 1.19-1.19s-.53-1.19-1.19-1.19z"></path></g><g><g><path d="m24.39 60.23h-16.5c-2.72 0-4.93-2.21-4.93-4.93v-46.6c0-2.72 2.21-4.93 4.93-4.93h16.5c2.72 0 4.93 2.21 4.93 4.93v46.6c-.01 2.72-2.22 4.93-4.93 4.93zm-16.5-54.46c-1.61 0-2.93 1.31-2.93 2.93v46.6c0 1.61 1.31 2.93 2.93 2.93h16.5c1.61 0 2.93-1.31 2.93-2.93v-46.6c0-1.61-1.31-2.93-2.93-2.93z"></path></g><g><path d="m23.77 24.23h-15.27c-.55 0-1-.45-1-1v-12.47c0-.55.45-1 1-1h15.26c.55 0 1 .45 1 1v12.48c.01.55-.44.99-.99.99zm-14.27-2h13.26v-10.47h-13.26z"></path></g><g><path d="m18.91 35.37c-.3 0-.59-.13-.79-.39l-1.95-2.51-2.08 2.53c-.35.43-.98.49-1.41.14s-.49-.98-.14-1.41l2.87-3.5c.19-.24.46-.33.79-.37.3 0 .59.15.78.39l2.72 3.5c.34.44.26 1.06-.18 1.4-.17.15-.39.22-.61.22z"></path></g><g><path d="m16.04 49.97h-.01c-.3 0-.59-.15-.78-.39l-2.72-3.49c-.34-.44-.26-1.06.17-1.4.44-.34 1.06-.26 1.4.17l1.95 2.51 2.08-2.53c.35-.43.98-.49 1.41-.14s.49.98.14 1.41l-2.87 3.49c-.19.23-.47.37-.77.37z"></path></g><g><path d="m28.31 41.39h-24.35c-.55 0-1-.45-1-1s.45-1 1-1h24.35c.55 0 1 .45 1 1s-.45 1-1 1z"></path></g></g><g><g><path d="m48.13 37.68c-.25 0-.49-.09-.68-.27l-3.64-3.41c-.4-.38-.42-1.01-.05-1.41.38-.4 1.01-.42 1.41-.05l2.96 2.77 2.96-2.77c.4-.38 1.04-.36 1.41.05s.36 1.04-.05 1.41l-3.64 3.41c-.19.18-.44.27-.68.27z"></path></g><g><path d="m48.13 58.99c-.55 0-1-.45-1-1v-27.94c0-.55.45-1 1-1s1 .45 1 1v27.94c0 .55-.45 1-1 1z"></path></g><g><path d="m51.77 55.77c-.25 0-.49-.09-.68-.27l-2.96-2.77-2.96 2.77c-.4.38-1.03.36-1.41-.05-.38-.4-.36-1.04.05-1.41l3.64-3.41c.38-.36.98-.36 1.37 0l3.64 3.41c.4.38.42 1.01.05 1.41-.21.21-.48.32-.74.32z"></path></g><g><path d="m55.39 53.74c-.46 0-.88-.33-.98-.8l-1.01-4.89c-.11-.52.21-1.03.71-1.17l4.81-1.32c.53-.15 1.08.17 1.23.7s-.17 1.08-.7 1.23l-3.91 1.07.82 3.97c.11.54-.24 1.07-.78 1.18-.05.02-.12.03-.19.03z"></path></g><g><path d="m60.04 52.32c-.18 0-.36-.05-.52-.15l-23.83-14.6c-.47-.29-.62-.9-.33-1.38.29-.47.9-.62 1.38-.33l23.83 14.6c.47.29.62.9.33 1.38-.2.31-.52.48-.86.48z"></path></g><g><path d="m37.06 42.5c-.44 0-.84-.29-.96-.74-.15-.53.17-1.08.7-1.23l3.91-1.07-.82-3.97c-.11-.54.24-1.07.78-1.18s1.07.24 1.18.78l1.01 4.89c.11.52-.21 1.03-.71 1.17l-4.81 1.32c-.1.02-.19.03-.28.03z"></path></g><g><path d="m40.87 53.74c-.07 0-.13-.01-.2-.02-.54-.11-.89-.64-.78-1.18l.82-3.97-3.91-1.07c-.53-.15-.85-.7-.7-1.23s.7-.85 1.23-.7l4.81 1.32c.51.14.82.65.71 1.17l-1.01 4.89c-.09.46-.51.79-.97.79z"></path></g><g><path d="m36.22 52.32c-.34 0-.67-.17-.85-.48-.29-.47-.14-1.09.33-1.38l23.83-14.6c.47-.29 1.09-.14 1.38.33s.14 1.09-.33 1.38l-23.83 14.6c-.18.1-.36.15-.53.15z"></path></g><g><path d="m59.2 42.5c-.09 0-.18-.01-.27-.04l-4.81-1.32c-.51-.14-.82-.65-.71-1.17l1.01-4.89c.11-.54.64-.89 1.18-.78s.89.64.78 1.18l-.82 3.97 3.91 1.07c.53.15.85.7.7 1.23-.13.46-.53.75-.97.75z"></path></g></g><g><path d="m50.18 26.97c-4.98 0-9.02-4.05-9.02-9.02s4.05-9.02 9.02-9.02c2.62 0 5.11 1.14 6.82 3.12.36.42.32 1.05-.1 1.41s-1.05.32-1.41-.1c-1.34-1.54-3.27-2.43-5.31-2.43-3.87 0-7.02 3.15-7.02 7.02s3.15 7.02 7.02 7.02c1.79 0 3.49-.67 4.8-1.89.4-.38 1.04-.36 1.41.05.38.4.36 1.04-.05 1.41-1.67 1.57-3.86 2.43-6.16 2.43z"></path></g></svg>
