<svg id="fi_11567902" enable-background="new 0 0 64 64" viewBox="0 0 64 64" xmlns="http://www.w3.org/2000/svg"><g><path d="m34.41 52.7c-.22 0-.43-.07-.6-.2-.25-.19-.4-.48-.4-.8v-3.31c0-.44-.18-.87-.5-1.2-.31-.31-.75-.49-1.2-.49-.93 0-1.69.76-1.69 1.69v3.31c0 .31-.15.61-.4.8s-.57.25-.87.17c-4.72-1.32-8.02-5.66-8.02-10.57v-15.2c0-6.05 4.92-10.97 10.97-10.97 2.94 0 5.69 1.14 7.76 3.21s3.21 4.83 3.21 7.76v15.2c0 4.91-3.29 9.25-8.01 10.57-.07.02-.16.03-.25.03zm-2.7-34.79c-4.95 0-8.97 4.03-8.97 8.97v15.2c0 3.56 2.12 6.76 5.29 8.19v-1.89c0-2.03 1.65-3.69 3.69-3.69.98 0 1.93.39 2.62 1.08.7.71 1.08 1.64 1.08 2.61v1.89c3.16-1.43 5.28-4.63 5.28-8.18v-15.2c0-2.4-.93-4.65-2.62-6.35-1.71-1.69-3.97-2.63-6.37-2.63z"></path></g><g><path d="m29.02 56.3c-.06 0-.13-.01-.19-.02-2.86-.56-5.48-1.97-7.57-4.06-2.79-2.78-4.33-6.49-4.33-10.45v-9.92c0-.55.45-1 1-1s1 .45 1 1v9.92c0 3.42 1.33 6.63 3.75 9.03 1.81 1.81 4.07 3.02 6.54 3.51.54.11.89.63.79 1.17-.1.49-.52.82-.99.82z"></path></g><g><path d="m34.41 56.3c-.47 0-.89-.33-.98-.81-.11-.54.24-1.07.79-1.18 5.96-1.19 10.29-6.46 10.29-12.54v-9.92c0-.55.45-1 1-1s1 .45 1 1v9.92c0 7.03-5.01 13.13-11.9 14.51-.07.01-.14.02-.2.02z"></path></g><g><path d="m41.69 32.37h-19.95c-.55 0-1-.45-1-1s.45-1 1-1h19.95c.55 0 1 .45 1 1s-.45 1-1 1z"></path></g><g><path d="m34.41 61.47h-5.38c-.55 0-1-.45-1-1v-12.08c0-2.03 1.65-3.69 3.69-3.69.98 0 1.93.39 2.62 1.08.7.71 1.08 1.64 1.08 2.61v12.08c-.01.56-.46 1-1.01 1zm-4.39-2h3.38v-11.08c0-.44-.18-.87-.5-1.2-.31-.31-.75-.49-1.2-.49-.93 0-1.69.76-1.69 1.69v11.08z"></path></g><g><path d="m45.09 26.83c-.55 0-1-.45-1-1 0-6.82-5.55-12.38-12.38-12.38-6.82 0-12.38 5.55-12.38 12.38 0 .55-.45 1-1 1s-1-.45-1-1c0-7.93 6.45-14.38 14.38-14.38s14.38 6.45 14.38 14.38c0 .55-.45 1-1 1z"></path></g><g><path d="m49.36 22.98c-.46 0-.87-.32-.98-.79-1.68-7.74-8.67-13.36-16.6-13.36-7.98 0-14.8 5.43-16.57 13.2-.12.54-.66.88-1.2.75-.54-.12-.88-.66-.75-1.2 1.98-8.69 9.6-14.75 18.52-14.75 8.87 0 16.68 6.28 18.56 14.94.12.54-.23 1.07-.76 1.19-.08.01-.15.02-.22.02z"></path></g><g><path d="m53.62 21.05c-.44 0-.84-.29-.96-.73-2.62-9.3-11.2-15.79-20.88-15.79-9.17 0-17.39 5.81-20.45 14.45-.18.52-.75.79-1.28.61-.52-.18-.79-.76-.61-1.28 3.34-9.44 12.32-15.78 22.34-15.78 10.56 0 19.94 7.09 22.8 17.25.15.53-.16 1.08-.69 1.23-.09.03-.19.04-.27.04z"></path></g><g><path d="m41.1 61.47h-18.78c-.55 0-1-.45-1-1s.45-1 1-1h18.78c.55 0 1 .45 1 1s-.45 1-1 1z"></path></g></svg>
